<mxfile host="app.diagrams.net" modified="2023-04-17T01:21:54.421Z" agent="Mozilla/5.0 (Macintosh; Intel Mac OS X 10_15_7) AppleWebKit/537.36 (KHTML, like Gecko) Chrome/111.0.0.0 Safari/537.36" etag="7s74Z3cmU6AsDoweZE_w" version="21.1.5" type="device">
  <diagram name="Page-1" id="c-MUXKATVoiSiFvxsPMk">
    <mxGraphModel dx="453" dy="256" grid="1" gridSize="10" guides="1" tooltips="1" connect="1" arrows="1" fold="1" page="1" pageScale="1" pageWidth="827" pageHeight="1169" math="0" shadow="0">
      <root>
        <mxCell id="0" />
        <mxCell id="1" parent="0" />
        <mxCell id="1EkqK1BKy1AhhcX9WGHw-2" value="" style="endArrow=none;html=1;rounded=0;" edge="1" parent="1" source="1EkqK1BKy1AhhcX9WGHw-11">
          <mxGeometry width="50" height="50" relative="1" as="geometry">
            <mxPoint x="230" y="260" as="sourcePoint" />
            <mxPoint x="500" y="260" as="targetPoint" />
          </mxGeometry>
        </mxCell>
        <mxCell id="1EkqK1BKy1AhhcX9WGHw-3" value="" style="endArrow=none;html=1;rounded=0;" edge="1" parent="1" source="1EkqK1BKy1AhhcX9WGHw-1">
          <mxGeometry width="50" height="50" relative="1" as="geometry">
            <mxPoint x="230" y="320" as="sourcePoint" />
            <mxPoint x="500" y="320" as="targetPoint" />
          </mxGeometry>
        </mxCell>
        <mxCell id="1EkqK1BKy1AhhcX9WGHw-5" value="" style="endArrow=none;html=1;rounded=0;" edge="1" parent="1" target="1EkqK1BKy1AhhcX9WGHw-4">
          <mxGeometry width="50" height="50" relative="1" as="geometry">
            <mxPoint x="230" y="260" as="sourcePoint" />
            <mxPoint x="500" y="260" as="targetPoint" />
          </mxGeometry>
        </mxCell>
        <mxCell id="1EkqK1BKy1AhhcX9WGHw-4" value="&lt;b&gt;H&lt;/b&gt;" style="rounded=0;whiteSpace=wrap;html=1;" vertex="1" parent="1">
          <mxGeometry x="280" y="246" width="40" height="30" as="geometry" />
        </mxCell>
        <mxCell id="1EkqK1BKy1AhhcX9WGHw-7" value="|0&amp;gt;" style="text;html=1;strokeColor=none;fillColor=none;align=center;verticalAlign=middle;whiteSpace=wrap;rounded=0;" vertex="1" parent="1">
          <mxGeometry x="180" y="246" width="60" height="30" as="geometry" />
        </mxCell>
        <mxCell id="1EkqK1BKy1AhhcX9WGHw-8" value="|0&amp;gt;" style="text;html=1;strokeColor=none;fillColor=none;align=center;verticalAlign=middle;whiteSpace=wrap;rounded=0;" vertex="1" parent="1">
          <mxGeometry x="180" y="300" width="60" height="30" as="geometry" />
        </mxCell>
        <mxCell id="1EkqK1BKy1AhhcX9WGHw-9" value="" style="endArrow=none;html=1;rounded=0;" edge="1" parent="1" target="1EkqK1BKy1AhhcX9WGHw-1">
          <mxGeometry width="50" height="50" relative="1" as="geometry">
            <mxPoint x="230" y="320" as="sourcePoint" />
            <mxPoint x="500" y="320" as="targetPoint" />
          </mxGeometry>
        </mxCell>
        <mxCell id="1EkqK1BKy1AhhcX9WGHw-1" value="&lt;b&gt;Uf&lt;/b&gt;" style="rounded=0;whiteSpace=wrap;html=1;" vertex="1" parent="1">
          <mxGeometry x="340" y="305" width="40" height="30" as="geometry" />
        </mxCell>
        <mxCell id="1EkqK1BKy1AhhcX9WGHw-10" value="" style="endArrow=none;html=1;rounded=0;exitX=0.5;exitY=0;exitDx=0;exitDy=0;" edge="1" parent="1" source="1EkqK1BKy1AhhcX9WGHw-1">
          <mxGeometry width="50" height="50" relative="1" as="geometry">
            <mxPoint x="350" y="310" as="sourcePoint" />
            <mxPoint x="360" y="260" as="targetPoint" />
          </mxGeometry>
        </mxCell>
        <mxCell id="1EkqK1BKy1AhhcX9WGHw-12" value="" style="endArrow=none;html=1;rounded=0;" edge="1" parent="1" source="1EkqK1BKy1AhhcX9WGHw-4" target="1EkqK1BKy1AhhcX9WGHw-11">
          <mxGeometry width="50" height="50" relative="1" as="geometry">
            <mxPoint x="320" y="261" as="sourcePoint" />
            <mxPoint x="500" y="260" as="targetPoint" />
          </mxGeometry>
        </mxCell>
        <mxCell id="1EkqK1BKy1AhhcX9WGHw-11" value="&lt;b&gt;H&lt;/b&gt;" style="rounded=0;whiteSpace=wrap;html=1;" vertex="1" parent="1">
          <mxGeometry x="400" y="246" width="40" height="30" as="geometry" />
        </mxCell>
      </root>
    </mxGraphModel>
  </diagram>
</mxfile>
